PathFileType	4	(X/Y/Z)	C:/Users/beibeiliu/ov580/test_trc/capture2\sequence.15_training_dense_left.trc
DataRate	CameraRate	NumFrames	NumMarkers	Units	OrigDataRate	OrigDataStartFrame	OrigNumFrames
120	120	11	19	mm	120	322	367
Frame#	Time	ThumbCMC			ThumbMCP			ThumbIP			ThumbTip			IndexMCP			IndexPIP			IndexTip			MiddleMCP			MiddlePIP			MiddleTip			RingMCP			RingPIP			RingTip			PinkyMCP			PinkyPIP			PinkyTip			BackHand1			BackHand2			BackHand3	
		X0	Y0	Z0	X1	Y1	Z1	X2	Y2	Z2	X3	Y3	Z3	X4	Y4	Z4	X5	Y5	Z5	X6	Y6	Z6	X7	Y7	Z7	X8	Y8	Z8	X9	Y9	Z9	X10	Y10	Z10	X11	Y11	Z11	X12	Y12	Z12	X13	Y13	Z13	X14	Y14	Z14	X15	Y15	Z15	X16	Y16	Z16	X17	Y17	Z17	X18	Y18	Z18	
321	2.675	-120.841	100.966	-49.3471	-99.9513	113.436	-66.2518	-91.7408	120.436	-89.1374	-84.0067	128.244	-109.479	-104.7	74.4424	-110.025	-79.0339	81.4907	-103.567	-92.4578	84.262	-68.3064	-98.9989	57.9514	-105.339	-74.9251	64.8195	-91.0289	-95.0181	75.2298	-59.8251	-98.2156	41.779	-96.2447	-74.0063	55.8226	-80.0929	-94.1307	65.7526	-54.6816	-109.311	16.8036	-84.3366	-92.1756	4.17729	-99.4864	-82.1915	-9.58156	-117.347	-140.038	40.3261	-57.1243	-146.297	51.0112	-27.2932	-147.814	74.0243	-49.9544	
322	2.68333	-117.95	105.413	-43.9208	-98.7395	113.339	-68.8052	-90.4432	124.864	-89.4279	-84.129	129.493	-111.769	-103.568	78.1141	-110.853	-78.2205	81.7278	-102.789	-89.5693	83.7835	-70.7654	-99.5266	63.4262	-105.931	-73.4687	68.0699	-90.7134	-95.4958	81.542	-59.8459	-95.2939	42.5485	-96.5512	-72.3044	56.9596	-82.8031	-90.1236	67.9359	-58.1943	-106.331	17.9971	-89.1153	-90.2773	5.93014	-101.733	-83.2449	-2.61322	-118.638	-137.076	45.9585	-56.9099	-140.117	51.3496	-27.969	-143.27	74.4252	-52.9682	
323	2.69167	-115.99	110.001	-47.2565	-97.3564	116.27	-65.5626	-89.6699	124.337	-87.3511	-83.4354	132.525	-108.838	-105.042	83.4591	-110.498	-77.3847	90.9407	-104.774	-90.4318	90.1599	-69.0984	-98.5258	66.5894	-105.097	-72.4245	76.8576	-90.797	-94.525	84.3925	-59.2358	-92.7091	50.0527	-100.776	-69.8632	59.1456	-83.5507	-90.6015	68.6896	-56.2754	-105.13	21.8315	-89.0926	-91.7444	10.8908	-104.297	-81.8577	-2.69111	-122.693	-136.312	43.7155	-54.4964	-136.819	52.9006	-29.7045	-142.086	82.1577	-51.8198	
324	2.7	-113.254	112.205	-45.823	-95.5315	117.062	-65.4569	-89.0731	130.303	-89.9727	-83.1731	137.211	-107.441	-105.89	87.3458	-109.178	-76.158	91.1407	-102.451	-87.3732	93.4166	-70.1794	-99.5352	69.0458	-104.658	-70.2419	76.2583	-92.3246	-87.4402	83.5506	-59.9702	-93.0048	54.9314	-101.233	-69.5348	64.6706	-87.9142	-89.3613	71.9383	-57.8272	-105.736	26.851	-88.3519	-90.0018	13.5685	-104.856	-82.0048	4.81872	-125.517	-134.651	46.7832	-56.766	-134.938	54.5385	-27.085	-140.698	81.8348	-47.7402	
325	2.70833	-112.23	116.216	-44.8347	-94.8599	125.738	-66.1445	-90.0068	133.979	-91.9868	-84.2321	140.981	-109.241	-106.5	92.6607	-108.143	-77.0115	97.7538	-102.551	-86.2874	96.6755	-71.0049	-97.1869	74.366	-106.696	-70.7077	80.7781	-93.6072	-87.2361	90.0246	-61.6736	-94.9447	55.2965	-101.385	-68.0396	68.1475	-85.5594	-87.0799	76.5713	-60.2471	-105.814	29.5732	-90.7364	-91.6946	18.8316	-109.838	-81.4813	8.66548	-128.363	-133.032	52.6709	-58.7154	-131.83	56.8899	-29.9569	-137.377	87.9983	-48.228	
326	2.71667	-109.903	115.088	-42.1329	-94.6992	128.07	-65.3795	-89.9318	136.583	-85.1089	-86.7382	145.846	-108.822	-108.837	99.13	-108.672	-77.0092	103.43	-101.418	-88.0441	103.4	-70.4194	-101.933	79.8569	-107.122	-71.7796	85.5471	-93.7361	-84.3541	94.4202	-63.4922	-97.2306	63.2984	-103.63	-71.1363	72.491	-90.0796	-88.0633	81.6883	-62.4505	-105.529	33.6986	-96.1697	-92.4023	23.9823	-112.158	-87.063	15.3026	-130.759	-133.168	53.8221	-59.0371	-133.126	59.9384	-29.1253	-137.437	88.536	-45.9083	
327	2.725	-109.724	118.816	-40.8573	-94.7144	132.651	-61.3576	-92.415	142.128	-87.3129	-90.1634	151.985	-104.904	-115.058	105.624	-106.767	-83.0412	106.403	-104.302	-87.4485	104.811	-72.7755	-105.246	87.2868	-108.969	-76.3525	90.9457	-97.2091	-86.811	95.5739	-63.7994	-98.6369	67.9411	-104.717	-73.5656	77.748	-92.5675	-90.0943	84.7607	-60.7328	-109.754	41.1522	-97.8136	-97.4204	32.2833	-111.813	-88.3004	24.6715	-136.174	-133.288	58.7262	-55.7904	-129.842	63.1918	-24.9416	-137.434	91.9316	-43.5502	
328	2.73333	-110.638	124.212	-39.1472	-97.1343	132.151	-61.2118	-97.4697	145.056	-85.6796	-94.9428	154.34	-103.214	-120.572	113.69	-104.581	-86.33	112.35	-103.663	-89.5174	107.222	-73.3593	-113.245	91.0171	-107.243	-82.5461	93.061	-101.92	-90.5215	100.351	-65.0671	-107.074	72.32	-103.122	-79.2341	80.079	-95.5608	-90.3002	87.4055	-63.5846	-113.537	42.4359	-95.5922	-102.448	40.0665	-116.845	-95.0784	33.8398	-141.328	-137.409	61.3765	-58.2129	-132.305	62.8372	-27.2704	-140.789	97.5841	-40.8563	
329	2.74167	-109.758	119.825	-35.8582	-99.3348	134.384	-61.7433	-99.3358	149.642	-83.4306	-98.4656	158.815	-103.36	-121.217	114.625	-106.054	-91.4066	116.699	-104.942	-93.2962	106.857	-72.5576	-118.041	94.0652	-105.994	-85.2292	95.2746	-100.692	-94.1393	97.4808	-62.5664	-110.872	71.6637	-104.11	-81.3212	82.8986	-92.6845	-90.3731	85.4433	-61.6993	-117.908	47.1295	-100.735	-109.629	45.918	-118.259	-101.368	37.1646	-138.827	-139.995	62.0006	-55.9996	-131.384	63.1494	-27.5801	-138.934	94.8875	-38.2419	
330	2.75	-110.8	122.041	-37.2424	-100.77	131.865	-60.1346	-103.121	144.851	-84.0598	-100.732	159.244	-99.0487	-126.55	113.359	-101.899	-94.1806	111.327	-106.118	-91.8127	109.36	-73.4769	-118.644	92.3109	-107.007	-87.6247	95.3461	-100.539	-94.4221	93.3607	-63.6397	-115.969	74.3109	-102.352	-85.5785	84.0918	-93.4368	-93.0701	88.023	-62.5999	-122.069	44.1829	-100.379	-111.609	43.9317	-120.314	-106.996	40.4666	-140.488	-141.888	65.707	-51.7647	-134.024	63.3862	-24.3975	-139.3	94.5893	-36.3512	
331	2.75833	-110.482	115.759	-32.861	-103.239	132.827	-61.0679	-103.318	145.501	-79.5846	-106.413	157.506	-102.502	-126.753	111.307	-104.252	-98.1987	107.969	-107.268	-97.1872	102.845	-71.2696	-125.141	91.0925	-104.162	-91.4829	91.8949	-102.731	-97.8707	94.4391	-62.5987	-116.827	72.6835	-102.868	-88.466	79.7412	-97.337	-92.7129	81.7768	-63.597	-125.828	45.2701	-96.3016	-114.107	40.3868	-119.138	-108.597	36.0058	-142.432	-141.339	64.0582	-49.5613	-131.96	61.9476	-19.4384	-140.499	92.354	-32.9728	
